# xmcd
#
# Track frame offsets:
#	182
#	13802
#	31662
#	51097
#	71587
#	90695
#	99632
#	112520
#	125092
#	137657
#	154760
#	165112
#	176260
#	192037
#	204667
#	218372
#	240010
#	258455
#
# Disc length: 3727 seconds
#
# Revision: 3
# Processed by: cddbd v1.4b41PL2 Copyright (c) Steve Scherf et al.
# Submitted via: audiograbber 1.80
#
DISCID=da0e8d12
DTITLE=Jonny Hill - Ruf Teddybär eins-vier
DYEAR=1900
DGENRE=
TTITLE0=Carolyn
TTITLE1=Der alte Fluß
TTITLE2=Der alte Mann
TTITLE3=Der Feigling
TTITLE4=Desirée der Reeperbahn
TTITLE5=Ein Ring aus Feuer
TTITLE6=Es sind nur Erinnerungen
TTITLE7=Freunde
TTITLE8=500 Meilen von zuhaus´
TTITLE9=Geisterreiter
TTITLE10=Heute nacht, da brauch´ ich Dich
TTITLE11=Ich fahr´ meine Tour
TTITLE12=Ich möcht´ so gerne Dave Dudley hörn
TTITLE13=Kann Liebe alles verzeihn
TTITLE14=Laß uns auseinander gehen
TTITLE15=Ruf Teddybär eins-vier
TTITLE16=Wieder mal auf Tournee
TTITLE17=Papillon
EXTD=
EXTT0=
EXTT1=
EXTT2=
EXTT3=
EXTT4=
EXTT5=
EXTT6=
EXTT7=
EXTT8=
EXTT9=
EXTT10=
EXTT11=
EXTT12=
EXTT13=
EXTT14=
EXTT15=
EXTT16=
EXTT17=
PLAYORDER=
